<mxfile host="app.diagrams.net" modified="2021-06-08T12:02:25.501Z" agent="5.0 (Windows NT 10.0; Win64; x64) AppleWebKit/537.36 (KHTML, like Gecko) Chrome/91.0.4472.77 Safari/537.36" etag="aTEq9L7x_hTcx2KbdJHG" version="14.7.6" type="github">
  <diagram name="Page-1" id="c7558073-3199-34d8-9f00-42111426c3f3">
    <mxGraphModel dx="1807" dy="570" grid="1" gridSize="10" guides="1" tooltips="1" connect="1" arrows="1" fold="1" page="1" pageScale="1" pageWidth="826" pageHeight="1169" background="none" math="0" shadow="0">
      <root>
        <mxCell id="0" />
        <mxCell id="1" parent="0" />
        <mxCell id="4" value="游戏服务器" style="whiteSpace=wrap;align=center;verticalAlign=middle;fontStyle=1;strokeWidth=3;fillColor=#FFFFCC" parent="1" vertex="1">
          <mxGeometry x="640" y="600" width="90" height="60" as="geometry" />
        </mxCell>
        <mxCell id="14" value="游戏app" style="whiteSpace=wrap;align=center;verticalAlign=middle;fontStyle=1;strokeWidth=3;fillColor=#FFFFCC" parent="1" vertex="1">
          <mxGeometry x="134.99999999999997" y="599.9999999999999" width="90" height="60" as="geometry" />
        </mxCell>
        <mxCell id="57" value="国外" style="text;spacingTop=-5;align=center" parent="1" vertex="1">
          <mxGeometry x="670" y="510" width="30" height="20" as="geometry" />
        </mxCell>
        <mxCell id="L-r-QQyS-hGPbTAaRhRm-100" value="" style="endArrow=none;dashed=1;html=1;dashPattern=1 3;strokeWidth=2;" edge="1" parent="1">
          <mxGeometry width="50" height="50" relative="1" as="geometry">
            <mxPoint x="440" y="755" as="sourcePoint" />
            <mxPoint x="440" y="210" as="targetPoint" />
          </mxGeometry>
        </mxCell>
        <mxCell id="L-r-QQyS-hGPbTAaRhRm-104" value="" style="endArrow=classic;html=1;exitX=1;exitY=0.5;exitDx=0;exitDy=0;entryX=0.459;entryY=-0.063;entryDx=0;entryDy=0;entryPerimeter=0;" edge="1" parent="1" source="L-r-QQyS-hGPbTAaRhRm-116" target="4">
          <mxGeometry width="50" height="50" relative="1" as="geometry">
            <mxPoint x="340" y="620.6600000000001" as="sourcePoint" />
            <mxPoint x="680" y="590" as="targetPoint" />
          </mxGeometry>
        </mxCell>
        <mxCell id="L-r-QQyS-hGPbTAaRhRm-106" value="vpn进程" style="whiteSpace=wrap;align=center;verticalAlign=middle;fontStyle=1;strokeWidth=3;fillColor=#FFFFCC" vertex="1" parent="1">
          <mxGeometry x="135" y="430" width="90" height="60" as="geometry" />
        </mxCell>
        <mxCell id="L-r-QQyS-hGPbTAaRhRm-108" value="" style="endArrow=classic;html=1;entryX=0.5;entryY=1;entryDx=0;entryDy=0;exitX=0.5;exitY=0;exitDx=0;exitDy=0;" edge="1" parent="1" source="14" target="L-r-QQyS-hGPbTAaRhRm-106">
          <mxGeometry width="50" height="50" relative="1" as="geometry">
            <mxPoint x="175" y="600" as="sourcePoint" />
            <mxPoint x="225" y="550" as="targetPoint" />
          </mxGeometry>
        </mxCell>
        <mxCell id="L-r-QQyS-hGPbTAaRhRm-109" value="请求国外游戏资源" style="text;spacingTop=-5;align=center" vertex="1" parent="1">
          <mxGeometry x="217" y="540" width="30" height="20" as="geometry" />
        </mxCell>
        <mxCell id="L-r-QQyS-hGPbTAaRhRm-110" value="后台配置平台" style="whiteSpace=wrap;align=center;verticalAlign=middle;fontStyle=1;strokeWidth=3;fillColor=#FFFFCC" vertex="1" parent="1">
          <mxGeometry x="50" y="261" width="90" height="60" as="geometry" />
        </mxCell>
        <mxCell id="L-r-QQyS-hGPbTAaRhRm-112" value="上传需要识别url地址，返回国内CDN地址" style="text;spacingTop=-5;align=center" vertex="1" parent="1">
          <mxGeometry x="40" y="371" width="30" height="20" as="geometry" />
        </mxCell>
        <mxCell id="L-r-QQyS-hGPbTAaRhRm-113" value="" style="endArrow=classic;startArrow=classic;html=1;exitX=0.5;exitY=0;exitDx=0;exitDy=0;entryX=0.5;entryY=1;entryDx=0;entryDy=0;" edge="1" parent="1" source="L-r-QQyS-hGPbTAaRhRm-106" target="L-r-QQyS-hGPbTAaRhRm-110">
          <mxGeometry width="50" height="50" relative="1" as="geometry">
            <mxPoint x="179.66" y="421" as="sourcePoint" />
            <mxPoint x="180" y="330" as="targetPoint" />
          </mxGeometry>
        </mxCell>
        <mxCell id="L-r-QQyS-hGPbTAaRhRm-116" value="国内CDN" style="whiteSpace=wrap;align=center;verticalAlign=middle;fontStyle=1;strokeWidth=3;fillColor=#FFFFCC" vertex="1" parent="1">
          <mxGeometry x="240" y="261" width="90" height="60" as="geometry" />
        </mxCell>
        <mxCell id="L-r-QQyS-hGPbTAaRhRm-117" value="" style="endArrow=classic;html=1;entryX=0.5;entryY=1;entryDx=0;entryDy=0;" edge="1" parent="1" target="L-r-QQyS-hGPbTAaRhRm-116">
          <mxGeometry width="50" height="50" relative="1" as="geometry">
            <mxPoint x="180" y="430" as="sourcePoint" />
            <mxPoint x="230" y="380" as="targetPoint" />
          </mxGeometry>
        </mxCell>
        <mxCell id="L-r-QQyS-hGPbTAaRhRm-118" value="从国内CDN下载对应游戏资源" style="text;spacingTop=-5;align=center" vertex="1" parent="1">
          <mxGeometry x="300" y="371" width="30" height="20" as="geometry" />
        </mxCell>
        <mxCell id="L-r-QQyS-hGPbTAaRhRm-119" value="将游戏APP请求国外游戏资源下载回国内CDN" style="text;spacingTop=-5;align=center" vertex="1" parent="1">
          <mxGeometry x="490" y="330" width="30" height="20" as="geometry" />
        </mxCell>
        <mxCell id="L-r-QQyS-hGPbTAaRhRm-123" value="" style="endArrow=classic;html=1;entryX=0;entryY=0.5;entryDx=0;entryDy=0;exitX=1;exitY=0.5;exitDx=0;exitDy=0;" edge="1" parent="1" source="L-r-QQyS-hGPbTAaRhRm-110" target="L-r-QQyS-hGPbTAaRhRm-116">
          <mxGeometry width="50" height="50" relative="1" as="geometry">
            <mxPoint x="167" y="310" as="sourcePoint" />
            <mxPoint x="217" y="260" as="targetPoint" />
          </mxGeometry>
        </mxCell>
        <mxCell id="L-r-QQyS-hGPbTAaRhRm-125" value="缓存国外资源" style="text;spacingTop=-5;align=center" vertex="1" parent="1">
          <mxGeometry x="174" y="261" width="25" height="20" as="geometry" />
        </mxCell>
      </root>
    </mxGraphModel>
  </diagram>
</mxfile>
